<svg width="390" height="43" viewBox="0 0 390 43" fill="none" xmlns="http://www.w3.org/2000/svg">
<path d="M174.73 12.2386V29.6932H171.568V15.3153H171.466L167.384 17.9233V15.0256L171.722 12.2386H174.73Z" fill="#F9F9F9"/>
<path d="M185.614 30.0256C184.21 30.0256 183.006 29.6705 182 28.9602C181 28.2443 180.23 27.2131 179.691 25.8665C179.157 24.5142 178.889 22.8864 178.889 20.983C178.895 19.0795 179.165 17.4602 179.699 16.125C180.239 14.7841 181.009 13.7614 182.009 13.0568C183.014 12.3523 184.216 12 185.614 12C187.012 12 188.213 12.3523 189.219 13.0568C190.225 13.7614 190.995 14.7841 191.529 16.125C192.068 17.4659 192.338 19.0852 192.338 20.983C192.338 22.892 192.068 24.5227 191.529 25.875C190.995 27.2216 190.225 28.25 189.219 28.9602C188.219 29.6705 187.017 30.0256 185.614 30.0256ZM185.614 27.358C186.705 27.358 187.566 26.821 188.196 25.7472C188.833 24.6676 189.151 23.0795 189.151 20.983C189.151 19.5966 189.006 18.4318 188.716 17.4886C188.426 16.5455 188.017 15.8352 187.489 15.358C186.96 14.875 186.335 14.6335 185.614 14.6335C184.529 14.6335 183.671 15.1733 183.04 16.2528C182.409 17.3267 182.091 18.9034 182.085 20.983C182.08 22.375 182.219 23.5455 182.503 24.4943C182.793 25.4432 183.202 26.1591 183.73 26.642C184.259 27.1193 184.887 27.358 185.614 27.358Z" fill="#F9F9F9"/>
<path d="M201.622 30.0256C200.218 30.0256 199.014 29.6705 198.008 28.9602C197.008 28.2443 196.238 27.2131 195.698 25.8665C195.164 24.5142 194.897 22.8864 194.897 20.983C194.903 19.0795 195.173 17.4602 195.707 16.125C196.247 14.7841 197.017 13.7614 198.017 13.0568C199.022 12.3523 200.224 12 201.622 12C203.019 12 204.221 12.3523 205.227 13.0568C206.233 13.7614 207.002 14.7841 207.536 16.125C208.076 17.4659 208.346 19.0852 208.346 20.983C208.346 22.892 208.076 24.5227 207.536 25.875C207.002 27.2216 206.233 28.25 205.227 28.9602C204.227 29.6705 203.025 30.0256 201.622 30.0256ZM201.622 27.358C202.713 27.358 203.573 26.821 204.204 25.7472C204.84 24.6676 205.159 23.0795 205.159 20.983C205.159 19.5966 205.014 18.4318 204.724 17.4886C204.434 16.5455 204.025 15.8352 203.497 15.358C202.968 14.875 202.343 14.6335 201.622 14.6335C200.536 14.6335 199.679 15.1733 199.048 16.2528C198.417 17.3267 198.099 18.9034 198.093 20.983C198.088 22.375 198.227 23.5455 198.511 24.4943C198.801 25.4432 199.21 26.1591 199.738 26.642C200.267 27.1193 200.894 27.358 201.622 27.358Z" fill="#F9F9F9"/>
<path d="M212.102 16.9346L215.477 22.517L218.852 16.9346H220.616L216.406 23.48L220.616 30.0255H218.852L215.477 24.6221L212.102 30.0255H210.346L214.505 23.48L210.346 16.9346H212.102Z" fill="#F9F9F9"/>
<path d="M214.102 16.9346L217.477 22.517L220.852 16.9346H222.616L218.406 23.48L222.616 30.0255H220.852L217.477 24.6221L214.102 30.0255H212.346L216.505 23.48L212.346 16.9346H214.102Z" fill="#F9F9F9"/>
</svg>
